FFmpeg version SVN-r25716, Copyright (c) 2000-2010 the FFmpeg developers  built on Nov 10 2010 12:23:18 with gcc 4.1.2 20080704 (Red Hat 4.1.2-48)  configuration: --enable-libmp3lame --enable-shared --disable-mmx --arch=x86_64  libavutil     50.33. 0 / 50.33. 0  libavcore      0.12. 1 /  0.12. 1  libavcodec    52.94. 4 / 52.94. 4  libavformat   52.84. 0 / 52.84. 0  libavdevice   52. 2. 2 / 52. 2. 2  libavfilter    1.59. 0 /  1.59. 0  libswscale     0.12. 0 /  0.12. 0[mov,mp4,m4a,3gp,3g2,mj2 @ 0x1d5874c0] max_analyze_duration reachedSeems stream 0 codec frame rate differs from container frame rate: 600.00 (600/1) -> 24.00 (24/1)Input #0, mov,mp4,m4a,3gp,3g2,mj2, from '/RAID10/data/converted_video_files/12577.mov':  Duration: 00:00:22.83, start: 0.000000, bitrate: 1105 kb/s    Stream #0.0(eng): Video: smc, pal8, 160x120, 1067 kb/s, 24 fps, 24 tbr, 600 tbn, 600 tbc    Stream #0.1(eng): Data: rtp  / 0x20707472, 35 kb/s[buffer @ 0x1d59cb00] w:160 h:120 pixfmt:pal8[ffsink @ 0x1d66b4d0] auto-inserting filter 'auto-inserted scaler 0' between the filter 'src' and the filter 'out'[scale @ 0x1d66b7f0] w:160 h:120 fmt:pal8 -> w:160 h:120 fmt:yuv420p flags:0x4Output #0, flv, to '/RAID10/data/converted_video_files/12577.flv':  Metadata:    encoder         : Lavf52.84.0    Stream #0.0(eng): Video: flv, yuv420p, 160x120, q=2-31, 600 kb/s, 1k tbn, 24 tbcStream mapping:  Stream #0.0 -> #0.0Press [q] to stop encodingframe=  168 fps=  0 q=4.6 size=     599kB time=7.00 bitrate= 700.6kbits/s    frame=  384 fps=375 q=4.6 size=    1259kB time=16.00 bitrate= 644.5kbits/s    frame=  548 fps=419 q=4.4 Lsize=    1763kB time=22.83 bitrate= 632.5kbits/s    video:1754kB audio:0kB global headers:0kB muxing overhead 0.499843%